<svg id="Flat" height="512" viewBox="0 0 512 512" width="512" xmlns="http://www.w3.org/2000/svg"><g><g><path d="m456 96v-32h-40v-40h-16v40h-40v32h-16v56l-8 8v232h136v-296z" fill="#80daff"/><path d="m344 392h-120v-104l8-8v-64l64-64h48z" fill="#f47b79"/><path d="m232 392h-120v-56l8-8v-48l56-48 56 48z" fill="#80daff"/><g fill="#fbd373"><path d="m371.4852 456h-43.67a284.7418 284.7418 0 0 1 -23.59 26.78 223.2746 223.2746 0 0 0 67.26-26.78z"/><path d="m236.2365 487.1343q9.8025.8613 19.7635.8657 9.9534 0 19.7635-.8657a260.7882 260.7882 0 0 0 31.4325-31.1343h-102.392a260.7882 260.7882 0 0 0 31.4325 31.1343z"/><path d="m184.1847 456h-43.67a223.2746 223.2746 0 0 0 67.26 26.78 284.7418 284.7418 0 0 1 -23.59-26.78z"/></g><path d="m120 392h-80v-64l40-24 40 24z" fill="#f47b79"/><path d="m72 352h16v40h-16z" fill="#fffcfc"/><path d="m168 352h16v40h-16z" fill="#fcfeff"/><path d="m144 296h16v40h-16z" fill="#fcfeff"/><path d="m192 296h16v40h-16z" fill="#fcfeff"/><path d="m256 296h16v40h-16z" fill="#fffcfc"/><path d="m280 352h16v40h-16z" fill="#fffcfc"/><path d="m304 296h16v40h-16z" fill="#fffcfc"/><path d="m256 240h16v40h-16z" fill="#fffcfc"/><path d="m304 240h16v40h-16z" fill="#fffcfc"/><g fill="#fcfeff"><path d="m368 240h16v40h-16z"/><path d="m400 240h16v40h-16z"/><path d="m368 184h16v40h-16z"/><path d="m400 184h16v40h-16z"/><path d="m368 128h16v40h-16z"/><path d="m400 128h16v40h-16z"/><path d="m432 240h16v40h-16z"/><path d="m368 296h16v40h-16z"/><path d="m400 296h16v40h-16z"/><path d="m432 296h16v40h-16z"/><path d="m432 184h16v40h-16z"/><path d="m432 128h16v40h-16z"/></g><path d="m304 184h16v40h-16z" fill="#fffcfc"/><path d="m400 352h16v40h-16z" fill="#fcfeff"/><path d="m16 384v16h61.99a224.5257 224.5257 0 0 0 39.3762 40h55.2456a300.507 300.507 0 0 1 -22.6818-40h17.79a282.9447 282.9447 0 0 0 24.4365 40h127.6873a282.9447 282.9447 0 0 0 24.4362-40h17.79a300.507 300.507 0 0 1 -22.6817 40h55.2456a224.5257 224.5257 0 0 0 39.3761-40h61.99v-16z" fill="#fbd373"/></g><path d="m24 216 120-112 48 40 72-80-24-16 80-24-8 80-24-16-96 104-48-40-120 112z" fill="#fbd373"/></g></svg>