<svg id="Layer_1" height="512" viewBox="0 0 512 512" width="512" xmlns="http://www.w3.org/2000/svg" data-name="Layer 1"><path d="m285.825 458.67-236.565-388.67h-22.35c-5.97 0-10.91 4.45-10.91 10.41v398.58a11.082 11.082 0 0 0 10.91 11.01h263.09z" fill="#d8c6c3"/><path d="m81.63 44h-25.59c-5.96 0-11.04 4.475-11.04 10.445v397.415a11.317 11.317 0 0 0 11.05 11.14h229.95v-34.72z" fill="#c1b5b4"/><path d="m383.27 95-82.27-84-212.58-.18c-5.97.01-10.42 5.03-10.42 10.99v399.67a10.251 10.251 0 0 0 10.42 10.52h199.58l96-194v-139.26a7.816 7.816 0 0 0 -.73-3.74z" fill="#f8e6e2"/><path d="m383.27 94.56h-45.9a36.378 36.378 0 0 1 -36.35-36.42v-46.78a10.71 10.71 0 0 1 4.96 2.9l75.06 76.92a10.98 10.98 0 0 1 2.23 3.38z" fill="#d3c3c1"/><path d="m313.14 153.39c0 .55-.01 1.09-.02 1.63l-1.12-.02h-81.73l-.64-.95.97-.66 58.28-58.28.08-.08a82.254 82.254 0 0 1 24.18 58.36z" fill="#f3ce7d"/><path d="m312 155 1.12.02a82.538 82.538 0 1 1 -130-69.15l.43.63 46.08 67.55.64.95z" fill="#5fcda4"/><path d="m288.96 95.03-.08.08-58.28 58.28-.97.66-46.08-67.55-.43-.63a82.534 82.534 0 0 1 105.84 9.16z" fill="#5fa8ed"/><path d="m108 421.48v-399.67c0-5.8 4.224-10.7 9.958-10.965l-29.538-.025c-5.97.01-10.42 5.03-10.42 10.99v399.67a10.251 10.251 0 0 0 10.42 10.52h30a10.251 10.251 0 0 1 -10.42-10.52z" fill="#d8c6c3"/><path d="m272.959 321.039h-22.452a6 6 0 0 1 0-12h22.452a6 6 0 1 1 0 12z" fill="#c1b5b4"/><path d="m222.051 321.039h-62.5a6 6 0 0 1 0-12h62.5a6 6 0 0 1 0 12z" fill="#c1b5b4"/><path d="m137.086 321.039h-6.1a6 6 0 0 1 0-12h6.1a6 6 0 0 1 0 12z" fill="#c1b5b4"/><path d="m278.959 371.715h-42.743a6 6 0 0 1 0-12h42.743a6 6 0 0 1 0 12z" fill="#c1b5b4"/><path d="m213.146 371.715h-32.638a6 6 0 1 1 0-12h32.638a6 6 0 1 1 0 12z" fill="#c1b5b4"/><path d="m157.066 371.715h-26.081a6 6 0 0 1 0-12h26.081a6 6 0 0 1 0 12z" fill="#c1b5b4"/><path d="m107.04 61.219a6 6 0 0 1 -6-6v-2.413a6 6 0 0 1 12 0v2.413a6 6 0 0 1 -6 6z" fill="#f4f8fc"/><path d="m107.04 164.127a6 6 0 0 1 -6-6v-79.478a6 6 0 0 1 12 0v79.478a6 6 0 0 1 -6 6z" fill="#f4f8fc"/><path d="m283 315v161.61a24.454 24.454 0 0 0 4.11 13.18 24.784 24.784 0 0 0 20.76 11.21h162.62a24.493 24.493 0 0 0 24.51-24.39v-161.61z" fill="#6d7486"/><path d="m470.49 234h-162.62c-13.47 0-24.87 10.94-24.87 24.41v56.59h212v-56.59a24.51 24.51 0 0 0 -24.51-24.41z" fill="#4a5160"/><path d="m311.93 259.37h154.5v34.89h-154.5z" fill="#6addc7"/><g fill="#4a5160"><path d="m446.46 334.44a18.005 18.005 0 1 1 -18 18.01 18.006 18.006 0 0 1 18-18.01z"/><path d="m446.46 387.41a18.01 18.01 0 1 1 -18 18.01 18.012 18.012 0 0 1 18-18.01z"/><path d="m446.46 440.39a18.005 18.005 0 1 1 -18 18 18 18 0 0 1 18-18z"/><path d="m389.51 334.44a18.005 18.005 0 1 1 -18 18.01 18.006 18.006 0 0 1 18-18.01z"/><path d="m389.51 387.41a18.01 18.01 0 1 1 -18 18.01 18.012 18.012 0 0 1 18-18.01z"/><path d="m389.51 440.39a18.005 18.005 0 1 1 -18 18 18 18 0 0 1 18-18z"/><path d="m332.56 334.44a18.005 18.005 0 1 1 -18 18.01 18.006 18.006 0 0 1 18-18.01z"/><path d="m332.56 387.41a18.01 18.01 0 1 1 -18 18.01 18.012 18.012 0 0 1 18-18.01z"/><path d="m332.56 440.39a18.005 18.005 0 1 1 -18 18 18 18 0 0 1 18-18z"/></g></svg>