<svg height="512pt" viewBox="0 0 512 512" width="512pt" xmlns="http://www.w3.org/2000/svg"><path d="m475.121094 141.121094c-37.648438-18.097656-70.320313-17.90625-99.554688.429687l-17.023437-27.085937c38.671875-24.289063 82.273437-25.074219 129.792969-2.480469 8.542968 4.0625 12.046874 14.429687 7.359374 22.640625-4.128906 7.152344-13.121093 10.078125-20.574218 6.496094zm0 0" fill="#77959e"/><path d="m411.519531 66.878906-32.960937 77.121094h-149.117188l-32.960937-77.121094c-6.402344-14.878906-4.960938-31.839844 4-45.277344 8.960937-13.601562 23.839843-21.601562 40-21.601562h127.039062c16.160157 0 31.039063 8 40 21.601562 8.960938 13.4375 10.402344 30.398438 4 45.277344zm0 0" fill="#c59969"/><path d="m396.800781 101.121094-18.242187 42.878906h-149.117188l-18.402344-43.199219c27.679688-12.480469 58.402344-19.039062 90.082032-19.039062h4.320312c32.160156 0 63.199219 6.71875 91.359375 19.359375zm0 0" fill="#ba8a5a"/><path d="m512 352c0 103.199219-73.921875 160-208 160-16.960938 0-32.960938-.960938-48-2.878906-103.679688-12.320313-160-67.042969-160-157.121094 0-54.71875 20.480469-112.960938 52.800781-160 .222657-.335938.464844-.671875.703125-1.007812 34.175782-49.296876 91.617188-77.230469 151.601563-77.230469h4.320312c62.925781 0 122.476563 30.703125 157.101563 83.230469 30.382812 46.113281 49.472656 102.253906 49.472656 155.007812zm0 0" fill="#c59969"/><path d="m511.328125 334.785156c-6.878906 93.773438-79.839844 145.214844-207.328125 145.214844h-.511719c-26.222656-.015625-47.488281-21.28125-47.488281-47.519531v-192.480469c0-26.511719-21.488281-48-48-48h-59.199219c-29.34375 42.703125-48.738281 94.625-52.113281 144.769531-.335938 5.085938-.6875 10.191407-.6875 15.230469 0 90.078125 56.320312 144.800781 160 157.121094 15.039062 1.917968 31.039062 2.878906 48 2.878906 134.078125 0 208-56.800781 208-160 0-5.710938-.238281-11.457031-.671875-17.214844zm0 0" fill="#ba8a5a"/><path d="m192 512h-160c-17.679688 0-32-14.320312-32-32v-224c0-17.679688 14.320312-32 32-32h160c17.679688 0 32 14.320312 32 32v224c0 17.679688-14.320312 32-32 32zm0 0" fill="#ffcb5a"/><path d="m304 272h48v-32h-32v-32h-32v34.945312c-18.574219 6.621094-32 24.222657-32 45.054688 0 26.464844 21.535156 48 48 48 8.832031 0 16 7.167969 16 16s-7.167969 16-16 16h-48v32h32v32h32v-34.945312c18.574219-6.621094 32-24.222657 32-45.054688 0-26.464844-21.535156-48-48-48-8.832031 0-16-7.167969-16-16s7.167969-16 16-16zm0 0" fill="#fff"/><g fill="#fba61f"><path d="m0 288h224v32h-224zm0 0"/><path d="m0 368h224v32h-224zm0 0"/><path d="m0 432h224v32h-224zm0 0"/></g><path d="m256 48h32v32h-32zm0 0" fill="#fff"/><path d="m320 48h32v32h-32zm0 0" fill="#fff"/></svg>