<svg height="464pt" viewBox="-16 0 464 464" width="464pt" xmlns="http://www.w3.org/2000/svg"><path d="m224 0-64 64h24v320h80v-320h24zm0 0" fill="#99d8aa"/><path d="m264 372.566406-16 3.433594c0-13.253906-10.746094-24-24-24h-40v32h80zm0 0" fill="#8dc79d"/><path d="m344 376h-48v-272l24-16 24 16zm0 0" fill="#c0f5f9"/><path d="m344 355.433594-48 10.277344v10.289062h48zm0 0" fill="#b9edf0"/><path d="m152 360h-48v-216l24-16 24 16zm0 0" fill="#c0f5f9"/><path d="m304 232c0 44.183594-35.816406 80-80 80s-80-35.816406-80-80 35.816406-80 80-80 80 35.816406 80 80zm0 0" fill="#fbb540"/><path d="m232 193.160156v-9.160156h-16v9.160156c-8.875 2.761719-15.179688 10.640625-15.921875 19.90625s4.222656 18.050782 12.546875 22.191406l15.589844 7.789063c2.84375 1.414063 4.34375 4.597656 3.613281 7.6875-.726563 3.089844-3.484375 5.269531-6.660156 5.265625h-2.335938c-3.769531-.003906-6.828125-3.0625-6.832031-6.832031v-1.167969h-16v1.167969c.035156 9.941406 6.511719 18.710937 16 21.671875v9.160156h16v-9.160156c8.875-2.761719 15.179688-10.640625 15.921875-19.90625s-4.222656-18.050782-12.546875-22.191406l-15.589844-7.789063c-2.84375-1.414063-4.34375-4.597656-3.613281-7.6875.726563-3.089844 3.484375-5.269531 6.660156-5.265625h2.335938c3.769531.003906 6.828125 3.0625 6.832031 6.832031v1.167969h16v-1.167969c-.035156-9.941406-6.511719-18.710937-16-21.671875zm0 0" fill="#d18d28"/><path d="m264 224h16v16h-16zm0 0" fill="#d18d28"/><path d="m168 232h16v16h-16zm0 0" fill="#d18d28"/><path d="m64 360h152l32 24 112-24h.152344c13.171875 0 23.847656 10.675781 23.847656 23.847656 0 9.753906-5.9375 18.527344-14.992188 22.152344l-145.007812 58-160-24h-16v-80zm0 0" fill="#fdc9a6"/><path d="m160 416h72c6.957031 0 13.570312-3.011719 18.128906-8.265625s6.617188-12.222656 5.640625-19.109375l.117188-6.3125-7.886719 1.6875-16-12-24-4h-48zm0 0" fill="#f6bb92"/><path d="m368 112h16v16h-16zm0 0" fill="#fbd699"/><path d="m368 144h16v16h-16zm0 0" fill="#fbd699"/><path d="m368 176h16v32h-16zm0 0" fill="#fbd699"/><g fill="#fbedbf"><path d="m64 176h16v16h-16zm0 0"/><path d="m64 208h16v16h-16zm0 0"/><path d="m64 240h16v32h-16zm0 0"/><path d="m64 56h16v16h-16zm0 0"/><path d="m40 80h16v16h-16zm0 0"/><path d="m88 80h16v16h-16zm0 0"/><path d="m64 104h16v16h-16zm0 0"/></g><path d="m400 16h16v16h-16zm0 0" fill="#fbd699"/><path d="m384 32h16v16h-16zm0 0" fill="#fbd699"/><path d="m416 32h16v16h-16zm0 0" fill="#fbd699"/><path d="m400 48h16v16h-16zm0 0" fill="#fbd699"/><path d="m152 314.113281c-13.964844-9.808593-31.65625-12.671875-48-7.761719v53.648438h48zm0 0" fill="#b9edf0"/><path d="m0 328h64v136h-64zm0 0" fill="#4799cf"/><path d="m224 360h-48.640625c-3.953125-27.535156-27.542969-47.976562-55.359375-47.976562s-51.40625 20.441406-55.359375 47.976562h-.640625v48h160c13.253906 0 24-10.746094 24-24s-10.746094-24-24-24zm0 0" fill="#fdc9a6"/></svg>