<svg height="512" viewBox="0 0 44 58" width="512" xmlns="http://www.w3.org/2000/svg"><g id="Page-1" fill="none" fill-rule="evenodd"><g id="009---Weight-Loss-Plan" fill-rule="nonzero" transform="translate(0 -1)"><path id="Shape" d="m41 48.17v7.83c0 1.6568542-1.3431458 3-3 3h-32c-1.65685425 0-3-1.3431458-3-3v-3.1c12.67 5.19 25.33-9.91 38-4.73z" fill="#cb8252"/><path id="Shape" d="m41 15v23.17c-12.67-5.18-25.33 9.92-38 4.73v-27.9c0-1.6568542 1.34314575-3 3-3h6v2c.0032948 1.1032019.8967981 1.9967052 2 2h16c1.1032019-.0032948 1.9967052-.8967981 2-2v-2h6c1.6568542 0 3 1.3431458 3 3z" fill="#cb8252"/><rect id="Rectangle-path" fill="#ecf0f1" height="39" rx="1" width="30" x="7" y="16"/><path id="Shape" d="m37 56h-3c-.5522847 0-1-.4477153-1-1s.4477153-1 1-1h2v-2c0-.5522847.4477153-1 1-1s1 .4477153 1 1v3c0 .5522847-.4477153 1-1 1z" fill="#bdc3c7"/><path id="Shape" d="m32 11.34v2.66c-.0032948 1.1032019-.8967981 1.9967052-2 2h-16c-1.1032019-.0032948-1.9967052-.8967981-2-2v-2.66c.0048936-1.3740324.9384775-2.57082935 2.27-2.91l1.52-.38c1.3357716-.32630195 2.2587601-1.54581613 2.21-2.92-.0063461-.23404257.0070345-.4682038.04-.7.2962963-2.07949431 2.1505724-3.57557183 4.2457047-3.42554351 2.0951324.15002832 3.7173198 1.89504858 3.7142953 3.99554351v.03c-.0006194 1.44998564.9841561 2.71494832 2.39 3.07l1.34.33c1.3315225.33917065 2.2651064 1.5359676 2.27 2.91z" fill="#bdc3c7"/><path id="Shape" d="m22 8c-.5522847 0-1-.44771525-1-1v-2c0-.55228475.4477153-1 1-1s1 .44771525 1 1v2c0 .55228475-.4477153 1-1 1z" fill="#7f8c8d"/><path id="Shape" d="m26 13h-8c-.5522847 0-1-.4477153-1-1s.4477153-1 1-1h8c.5522847 0 1 .4477153 1 1s-.4477153 1-1 1z" fill="#7f8c8d"/><path id="Shape" d="m44 40.8v8c0 .56-.45.69-1 .37-.6439346-.3769815-1.312054-.7110412-2-1-12.67-5.18-25.33 9.92-38 4.73-.68701314-.2909853-1.35500388-.6249807-2-1-.56689967-.3600124-.93591719-.961511-1-1.63v-8c0-.55.45-.69 1-.37.64499612.3750193 1.31298686.7090147 2 1 .64956862.2661181 1.31809182.4833882 2 .65.65688064.1691386 1.32537038.2894668 2 .36.66412719.0713665 1.33229442.0980932 2 .08.66904928-.0018344 1.3372199-.0486064 2-.14.67-.08 1.34-.19 2-.33s1.34-.31 2-.5 1.34-.4 2-.62 1.34-.46 2-.71 1.34-.5 2-.76 1.33-.52 2-.78 1.33-.52 2-.77 1.33-.48 2-.7 1.33-.44 2-.63 1.33-.35 2-.5 1.33-.25 2-.33c1.3271023-.1665728 2.6684987-.1866937 4-.06 1.3750405.1421354 2.7223093.4823208 4 1.01.687946.2889588 1.3560654.6230185 2 1 .5668997.3600124.9359172.961511 1 1.63z" fill="#f3d55b"/><g fill="#b19046"><path id="Shape" d="m5 43.55v4.72c0 .5522847-.44771525 1-1 1s-1-.4477153-1-1v-5.37c.64956862.2661181 1.31809182.4833882 2 .65z"/><path id="Shape" d="m21 40.93v5.38c0 .5522847-.4477153 1-1 1s-1-.4477153-1-1v-4.62c.67-.25 1.34-.5 2-.76z"/><path id="Shape" d="m9 43.99v2.99c0 .5522847-.44771525 1-1 1s-1-.4477153-1-1v-3.07c.66412719.0713665 1.33229442.0980932 2 .08z"/><path id="Shape" d="m13 43.52v3.19c0 .5522847-.4477153 1-1 1s-1-.4477153-1-1v-2.86c.67-.08 1.34-.19 2-.33z"/><path id="Shape" d="m17 42.4v3.32c0 .5522847-.4477153 1-1 1s-1-.4477153-1-1v-2.7c.67-.19 1.34-.4 2-.62z"/><path id="Shape" d="m37 37.16v4.93c0 .5522847-.4477153 1-1 1s-1-.4477153-1-1v-5.01c.6677056-.0180932 1.3358728.0086335 2 .08z"/><path id="Shape" d="m25 39.38v3.38c0 .5522847-.4477153 1-1 1s-1-.4477153-1-1v-2.61c.66-.26 1.33-.52 2-.77z"/><path id="Shape" d="m29 38.05v3.3c0 .5522847-.4477153 1-1 1s-1-.4477153-1-1v-2.67c.66-.23 1.33-.44 2-.63z"/><path id="Shape" d="m33 37.22v3.14c0 .5522847-.4477153 1-1 1s-1-.4477153-1-1v-2.81c.66-.14 1.33-.25 2-.33z"/><circle id="Oval" cx="40" cy="43" r="1"/></g><path id="Shape" d="m22 22h-12c-.55228475 0-1-.4477153-1-1s.44771525-1 1-1h12c.5522847 0 1 .4477153 1 1s-.4477153 1-1 1z" fill="#bdc3c7"/><path id="Shape" d="m32 28h-4c-1.6568542 0-3-1.3431458-3-3v-4c0-1.6568542 1.3431458-3 3-3h4c1.6568542 0 3 1.3431458 3 3v4c0 1.6568542-1.3431458 3-3 3zm-4-8c-.5522847 0-1 .4477153-1 1v4c0 .5522847.4477153 1 1 1h4c.5522847 0 1-.4477153 1-1v-4c0-.5522847-.4477153-1-1-1z" fill="#bdc3c7"/><path id="Shape" d="m22 34h-12c-.55228475 0-1-.4477153-1-1s.44771525-1 1-1h12c.5522847 0 1 .4477153 1 1s-.4477153 1-1 1z" fill="#bdc3c7"/><path id="Shape" d="m14 26h-4c-.55228475 0-1-.4477153-1-1s.44771525-1 1-1h4c.5522847 0 1 .4477153 1 1s-.4477153 1-1 1z" fill="#bdc3c7"/><path id="Shape" d="m14 38h-4c-.55228475 0-1-.4477153-1-1s.44771525-1 1-1h4c.5522847 0 1 .4477153 1 1s-.4477153 1-1 1z" fill="#bdc3c7"/><path id="Shape" d="m34 34c-.5522847 0-1-.4477153-1-1s-.4477153-1-1-1h-4c-.5522847 0-1 .4477153-1 1s-.4477153 1-1 1-1-.4477153-1-1c0-1.6568542 1.3431458-3 3-3h4c1.6568542 0 3 1.3431458 3 3 0 .5522847-.4477153 1-1 1z" fill="#bdc3c7"/></g></g></svg>