<svg id="Layer_5" enable-background="new 0 0 64 64" height="512" viewBox="0 0 64 64" width="512" xmlns="http://www.w3.org/2000/svg"><path d="m49 41-3-3-6 6-3 3-3-3h-6-6v15c0 .83-.34 1.58-.88 2.12s-1.29.88-2.12.88h9 6 6 6 6v-24z" fill="#ffeaa7"/><path d="m20 36-2 2-1.12 1.12c-.56.56-.88 1.33-.88 2.12v.76 17c0 .83-.34 1.58-.88 2.12s-1.29.88-2.12.88c-1.66 0-3-1.34-3-3v-26h5.5c.43 0 .84-.11 1.19-.3h.01z" fill="#cf9e76"/><path d="m22 44v15c0 .83-.34 1.58-.88 2.12s-1.29.88-2.12.88c-1.66 0-3-1.34-3-3v-17-.76c0-.79.32-1.56.88-2.12l1.12-1.12 2-2 2 2z" fill="#cf9e76"/><path d="m16.69 32.7c-.35.19-.76.3-1.19.3h-5.5-1c-2.21 0-4-1.79-4-4v-5c0-.9.15-1.77.42-2.58l1.58 1.58 3 3 2 2h3.5c.69 0 1.32.28 1.77.73s.73 1.08.73 1.77c0 .94-.52 1.77-1.3 2.2z" fill="#b4dd7f"/><path d="m9.05 17.04c1.16-.66 2.51-1.04 3.95-1.04h3 16.25l.05-.01c.44 1.87 1.37 3.6 2.71 5.01h-11.01c-1.1 0-2 .9-2 2v7l-8-8-3-3-1.95-1.95z" fill="#b4dd7f"/><circle cx="16" cy="9" fill="#f0d0b4" r="7"/><path d="m9.05 17.05 1.95 1.95-4 4-1.58-1.58-2.59-2.59c-.53-.53-.83-1.25-.83-2 0-.78.32-1.49.83-2s1.22-.83 2-.83c.75 0 1.47.3 2 .83z" fill="#aab2bd"/><path d="m14 22 8 8 6 6-4 4-2-2-2-2-3.3-3.3c.78-.43 1.3-1.26 1.3-2.2 0-.69-.28-1.32-.73-1.77s-1.08-.73-1.77-.73h-3.5l-2-2z" fill="#fcd770"/><path d="m28 36 1 5-5-1z" fill="#aab2bd"/><path d="m7.672 20.379h5.657v4.243h-5.657z" fill="#ffc729" transform="matrix(.707 -.707 .707 .707 -12.835 14.015)"/><path d="m48 28v1c0 2.76-2.24 5-5 5s-5-2.24-5-5v-1z" fill="#aab2bd"/><path d="m49 24c1.1 0 2 .9 2 2 0 .55-.22 1.05-.59 1.41-.36.37-.86.59-1.41.59h-1-10-1c-1.1 0-2-.9-2-2 0-.55.22-1.05.59-1.41.36-.37.86-.59 1.41-.59h.54 10.92z" fill="#ccd1d9"/><path d="m54 13v.44c0 2.92-1.16 5.72-3.22 7.78l-1.32 1.32c-.42.42-.75.92-1 1.46h-10.92c-.25-.54-.58-1.04-1-1.46l-1.32-1.32c-.07-.07-.14-.15-.21-.22-1.34-1.41-2.27-3.14-2.71-5.01-.2-.83-.3-1.68-.3-2.55v-.44c0-6.08 4.92-11 11-11s11 4.92 11 11z" fill="#fcd770"/><path d="m61 29-2 8-3-3-3-3z" fill="#ff826e"/><path d="m42 15c-.552 0-1-.449-1-1h-2c0 1.654 1.346 3 3 3v2h2v-2h3v-3c0-1.654-1.346-3-3-3h-2c-.552 0-1-.449-1-1v-1h3c.552 0 1 .449 1 1h2c0-1.654-1.346-3-3-3v-2h-2v2h-3v3c0 1.654 1.346 3 3 3h2c.552 0 1 .449 1 1v1z"/><path d="m59.542 38.956 2.832-11.331-11.33 2.833 3.542 3.542-5.586 5.586-3-3-9 9-2.586-2.586h-11.414v-2.586l.507.507 6.768 1.354-1.354-6.768-5.921-5.921v-6.586c0-.551.448-1 1-1h10.586l1.24 1.24c-1.072.458-1.826 1.522-1.826 2.76 0 1.654 1.346 3 3 3 0 3.309 2.691 6 6 6s6-2.691 6-6c1.654 0 3-1.346 3-3 0-1.238-.754-2.302-1.826-2.76l1.311-1.312c2.267-2.265 3.515-5.279 3.515-8.484v-.444c0-6.617-5.383-12-12-12s-12 5.383-12 12v.444c0 .526.046 1.043.112 1.556h-9.838c1.667-1.467 2.726-3.61 2.726-6 0-4.411-3.589-8-8-8s-8 3.589-8 8c0 2.522 1.176 4.771 3.005 6.239-.605.137-1.192.338-1.756.597l-1.714-1.714c-.723-.724-1.683-1.122-2.707-1.122-2.11 0-3.828 1.717-3.828 3.829 0 1.022.398 1.983 1.121 2.707l2.176 2.176c-.195.744-.297 1.511-.297 2.288v5c0 2.757 2.243 5 5 5v25c0 2.206 1.794 4 4 4 1.201 0 2.266-.542 3-1.382.734.84 1.799 1.382 3 1.382h34v-24.586l3-3zm-14.542 22.044h-4v-16.586l4-4zm-6-14.586v14.586h-4v-14.586l2 2zm-6 14.586h-4v-16h4zm-6-16v16h-4.556c.344-.591.556-1.268.556-2v-14zm-11.5-18h-3.086l-1-1 2.586-2.586 12.586 12.586-2.586 2.586-5.839-5.839c.516-.61.839-1.388.839-2.247 0-1.93-1.57-3.5-3.5-3.5zm-2.914-5-2.586 2.586-1.586-1.586 2.586-2.586zm13.442 17.386 1.358-1.358.339 1.697zm16.972-6.386c-2.206 0-4-1.794-4-4h8c0 2.206-1.794 4-4 4zm6-6h-12c-.552 0-1-.449-1-1s.448-1 1-1h12c.552 0 1 .449 1 1s-.448 1-1 1zm-16-14c0-5.514 4.486-10 10-10s10 4.486 10 10v.444c0 2.671-1.04 5.182-2.929 7.071l-1.313 1.314c-.339.339-.62.742-.874 1.171h-9.768c-.254-.43-.535-.832-.874-1.171l-1.313-1.314c-1.889-1.889-2.929-4.4-2.929-7.071zm-23-4c0-3.309 2.691-6 6-6s6 2.691 6 6-2.691 6-6 6-6-2.691-6-6zm3 8h18.536c.327 1.06.804 2.067 1.415 3h-8.951c-1.654 0-3 1.346-3 3v4.586l-10.213-10.212c.711-.237 1.457-.374 2.213-.374zm-10-.171c0-1.009.82-1.829 1.828-1.829.481 0 .952.195 1.293.536l3.465 3.464-2.586 2.586-3.465-3.464c-.345-.346-.535-.805-.535-1.293zm3 12.171v-5c0-.182.03-.361.044-.542l3.542 3.542h-1.586v2h7.5c.827 0 1.5.673 1.5 1.5s-.673 1.5-1.5 1.5h-6.5c-1.654 0-3-1.346-3-3zm11 30v-17-.757c0-.534.208-1.036.586-1.415l1.121-1.121-1.414-1.414-1.121 1.121c-.756.756-1.172 1.761-1.172 2.829v.757 17c0 1.103-.897 2-2 2s-2-.897-2-2v-25h4.5c.328 0 .64-.06.941-.145l4.559 4.559v20.586c0 1.103-.897 2-2 2s-2-.897-2-2zm34 2h-4v-20.586l2 2 2-2zm8.626-30.625-1.168 4.669-3.502-3.502z"/></svg>